<?xml version="1.0" encoding="UTF-8"?>
<svg version="1.1" xmlns="http://www.w3.org/2000/svg" width="564" height="222">
<path d="M0 0 C0.88365234 0.00563965 1.76730469 0.0112793 2.67773438 0.01708984 C9.25095674 0.13921925 15.05605981 0.80810893 21.1875 3.3125 C22.14527344 3.67988281 23.10304688 4.04726563 24.08984375 4.42578125 C39.07168521 10.96226034 48.37771911 23.72006403 54.4921875 38.45703125 C61.85496064 59.81982192 60.92995103 85.33723317 51.35302734 105.84155273 C44.28103995 120.08674555 33.43649544 130.03400158 18.1875 135.3125 C3.89742384 139.76350733 -10.37983168 138.89111716 -24.06640625 132.8203125 C-28.21636576 130.54167186 -31.47061396 127.62528797 -34.8125 124.3125 C-35.78466661 131.67116256 -35.78328371 138.72448853 -35.375 146.125 C-35.27725667 148.24212382 -35.18089101 150.35931172 -35.0859375 152.4765625 C-34.96011399 155.18480518 -34.83381071 157.89291191 -34.69628906 160.60058594 C-34.61045637 162.39953305 -34.55355278 164.19980277 -34.5 166 C-34.44392578 167.39798828 -34.44392578 167.39798828 -34.38671875 168.82421875 C-34.96277142 172.19069171 -36.497576 173.86014081 -38.8125 176.3125 C-46.49793691 180.15521846 -58.20381504 178.55034816 -65.96875 176.00390625 C-66.5771875 175.77574219 -67.185625 175.54757813 -67.8125 175.3125 C-67.8125 174.6525 -67.8125 173.9925 -67.8125 173.3125 C-68.8025 172.9825 -69.7925 172.6525 -70.8125 172.3125 C-71.88316797 169.1004961 -71.9382942 166.80435971 -71.93948364 163.42729187 C-71.94230347 162.19810532 -71.94512329 160.96891876 -71.94802856 159.70248413 C-71.94608408 158.33770737 -71.9440359 156.97293076 -71.94189453 155.6081543 C-71.9432495 154.17231705 -71.94502998 152.73648016 -71.94720459 151.30064392 C-71.95177202 147.3950388 -71.94999099 143.48946003 -71.9468255 139.58385444 C-71.944293 135.48777174 -71.94664243 131.3916913 -71.94821167 127.29560852 C-71.95003302 120.40466915 -71.94763032 113.51374048 -71.94287109 106.62280273 C-71.93745227 98.68582566 -71.93917386 90.74887436 -71.9446975 82.81189793 C-71.94925808 75.98279816 -71.94986413 69.15370609 -71.94725883 62.32460529 C-71.94570912 58.25307311 -71.94546566 54.18155297 -71.94879532 50.11002159 C-71.9517161 46.26951604 -71.94962229 42.42904311 -71.94390106 38.58854103 C-71.94259474 37.18988219 -71.94293066 35.79122054 -71.94516373 34.39256287 C-71.95516814 27.48080224 -71.84966192 20.58273333 -71.49191284 13.67951965 C-71.43507261 12.57465619 -71.37823238 11.46979273 -71.31966972 10.33144855 C-70.75807723 6.98854624 -69.85746765 5.00329576 -67.8125 2.3125 C-63.89566136 1.00688712 -60.14567352 1.08875835 -56.0625 1.0625 C-55.27617187 1.041875 -54.48984375 1.02125 -53.6796875 1 C-48.29196108 0.96420115 -44.57982935 1.75726049 -39.8125 4.3125 C-37.01301132 7.76520271 -36.32072268 10.94178497 -35.8125 15.3125 C-35.07 14.28125 -34.3275 13.25 -33.5625 12.1875 C-25.28829783 2.52119272 -12.12274054 -0.08103436 0 0 Z M-29.8125 40.3125 C-29.8125 40.9725 -29.8125 41.6325 -29.8125 42.3125 C-30.4725 42.3125 -31.1325 42.3125 -31.8125 42.3125 C-32.46293719 44.03994016 -33.10764844 45.7695369 -33.75 47.5 C-34.28947266 48.94439453 -34.28947266 48.94439453 -34.83984375 50.41796875 C-37.02067236 56.9079045 -37.06268689 63.14952476 -37.125 69.9375 C-37.15400391 70.96746094 -37.18300781 71.99742188 -37.21289062 73.05859375 C-37.30169337 83.91985229 -34.57710573 92.58333712 -26.9375 100.43359375 C-20.40117977 106.21295042 -13.45851128 107.57483157 -4.8125 107.3125 C3.74499082 106.12744135 10.32245228 102.89785207 15.90625 96.2734375 C22.04075796 87.76331126 23.74027903 78.78084265 23.625 68.4375 C23.61670166 67.47368408 23.60840332 66.50986816 23.59985352 65.5168457 C23.3267622 53.98967087 20.57223185 44.57889894 12.1875 36.3125 C-0.55792635 26.54256841 -19.09694963 27.8938158 -29.8125 40.3125 Z " fill="#F8F7F7" transform="translate(496.8125,36.6875)"/>
<path d="M0 0 C1.0967722 -0.02287771 2.19354441 -0.04575542 3.32355213 -0.0693264 C5.43249452 -0.11346089 7.54114852 -0.17685808 9.64882183 -0.26229286 C16.7021607 -0.37639336 16.7021607 -0.37639336 19.95497131 2.53689575 C23.48910656 9.3489062 23.36800717 18.46501262 21.20370483 25.74725342 C17.69871831 34.93383909 11.04551675 41.99239927 4.68417358 49.29803467 C-0.7146363 55.51441055 -5.8980744 61.91165288 -11.11270142 68.28240967 C-12.46227949 69.92963905 -13.81637629 71.57316428 -15.17129517 73.21600342 C-19.68454311 78.69637592 -24.08261735 84.25573771 -28.44546509 89.85565186 C-31.5889815 93.86790799 -34.8426978 97.76293267 -38.17129517 101.62225342 C-42.74023626 106.92491704 -46.91536621 112.45526535 -50.96817017 118.16107178 C-52.84525994 120.78708351 -54.63096942 123.14456745 -56.92520142 125.43084717 C-58.91270274 127.16694948 -58.91270274 127.16694948 -59.67129517 130.18475342 C-60.33129517 130.18475342 -60.99129517 130.18475342 -61.67129517 130.18475342 C-61.67129517 130.84475342 -61.67129517 131.50475342 -61.67129517 132.18475342 C-60.72804382 132.18031219 -59.78479248 132.17587097 -58.81295776 132.17129517 C-49.92566785 132.13075972 -41.03839668 132.10077413 -32.15103531 132.08112907 C-27.58190306 132.07068986 -23.01284542 132.05652812 -18.4437561 132.03387451 C-14.03470882 132.01215109 -9.62573332 132.00018583 -5.21663666 131.99499893 C-3.53411479 131.99130228 -1.85159686 131.9840837 -0.16910553 131.9732933 C2.18669642 131.958785 4.54220137 131.95677519 6.89804077 131.95770264 C7.5943158 131.95051208 8.29059082 131.94332153 9.00796509 131.93591309 C12.6140367 131.95128467 15.30517413 132.13311598 18.32870483 134.18475342 C21.93850447 138.5132462 21.78305992 142.69005959 21.70370483 148.05975342 C21.7153064 148.83705811 21.72690796 149.61436279 21.73886108 150.41522217 C21.71209016 155.72478784 20.87899264 159.50323919 18.32870483 164.18475342 C14.14500238 166.97388839 10.46866409 167.30826107 5.52258301 167.31846619 C4.11386932 167.32486366 4.11386932 167.32486366 2.67669678 167.33139038 C1.14923325 167.3307106 1.14923325 167.3307106 -0.40908813 167.33001709 C-1.49097412 167.3333757 -2.57286011 167.33673431 -3.68753052 167.3401947 C-7.26285959 167.34969118 -10.83814177 167.35164714 -14.41348267 167.35272217 C-16.90063496 167.35593554 -19.38778707 167.35929967 -21.87493896 167.36280823 C-27.08847492 167.36879615 -32.3019943 167.37064846 -37.51553345 167.37005615 C-42.8658241 167.36952197 -48.21604259 167.37656644 -53.5663147 167.39056396 C-60.0300452 167.40723321 -66.49371086 167.41411182 -72.95746231 167.41344643 C-75.41900118 167.41462587 -77.88054072 167.41904567 -80.34206772 167.42677879 C-83.78635843 167.43658659 -87.23041863 167.4336974 -90.67471313 167.42767334 C-92.19610397 167.4361026 -92.19610397 167.4361026 -93.74822998 167.44470215 C-106.27376591 167.38909333 -106.27376591 167.38909333 -110.56192017 163.44647217 C-113.82775079 156.78831749 -113.56782153 146.33319893 -111.67129517 139.18475342 C-109.15703204 133.05691731 -105.14466264 128.04442744 -100.96426392 122.96990967 C-98.3787558 119.82942025 -95.86541483 116.63824515 -93.35879517 113.43475342 C-92.41231581 112.22761613 -91.46569995 111.02058585 -90.51895142 109.81365967 C-90.04602661 109.21053955 -89.57310181 108.60741943 -89.08584595 107.98602295 C-87.71993904 106.24669586 -86.35058869 104.51014866 -84.97988892 102.77459717 C-75.66800653 90.97592241 -66.53954367 79.04042435 -57.54629517 66.99725342 C-49.20057707 55.83177712 -40.54164839 44.93733421 -31.67129517 34.18475342 C-32.37331055 34.25499222 -33.07532593 34.32523102 -33.7986145 34.39759827 C-41.82202987 35.14050254 -49.77283974 35.34548156 -57.82754517 35.35272217 C-59.1328418 35.35605057 -60.43813843 35.35937897 -61.7829895 35.36280823 C-64.51920401 35.36873701 -67.2553872 35.3706541 -69.99160767 35.37005615 C-73.49296378 35.36995362 -76.99412127 35.38372668 -80.49542999 35.40082836 C-83.85613831 35.41460365 -87.21680897 35.41403543 -90.57754517 35.41522217 C-92.45875061 35.42600044 -92.45875061 35.42600044 -94.37796021 35.43699646 C-95.5401709 35.43391983 -96.70238159 35.4308432 -97.89981079 35.42767334 C-98.92062744 35.42909836 -99.94144409 35.43052338 -100.99319458 35.43199158 C-103.77359314 35.17530943 -105.35701619 34.72252879 -107.67129517 33.18475342 C-109.75445724 30.0600103 -109.9265993 29.32062718 -109.93692017 25.76287842 C-109.94078735 24.47123779 -109.94078735 24.47123779 -109.94473267 23.15350342 C-109.93699829 22.25631592 -109.92926392 21.35912842 -109.92129517 20.43475342 C-109.92902954 19.55303467 -109.93676392 18.67131592 -109.94473267 17.76287842 C-109.92918902 12.54021222 -109.58937069 8.06945241 -107.67129517 3.18475342 C-103.7207722 0.55107144 -100.3033567 0.87732513 -95.71548462 0.86590576 C-94.33887917 0.85083733 -94.33887917 0.85083733 -92.9344635 0.83546448 C-89.88450742 0.80446634 -86.834641 0.78752434 -83.78457642 0.77069092 C-81.64916759 0.75195684 -79.51376598 0.7323818 -77.37837219 0.71200562 C-71.73067642 0.66051981 -66.08295571 0.6210445 -60.43515015 0.5838623 C-54.78007481 0.54435968 -49.12511215 0.49272988 -43.47012329 0.44256592 C-21.29832393 0.2525068 -21.29832393 0.2525068 -15.46461964 0.23731041 C-10.30607626 0.22308849 -5.15653363 0.14991973 0 0 Z " fill="#FAF9FA" transform="translate(119.67129516601563,5.81524658203125)"/>
<path d="M0 0 C5.42920356 4.66291957 9.56296005 9.65286724 13.1015625 15.859375 C13.47925781 16.49359375 13.85695313 17.1278125 14.24609375 17.78125 C20.57050905 29.24573316 21.14436933 42.44941225 21.3515625 55.234375 C21.38382935 56.41314209 21.38382935 56.41314209 21.41674805 57.61572266 C21.4356576 60.92881993 21.35577454 63.38534431 19.7734375 66.3359375 C16.23478006 69.56041508 12.07242063 68.96780748 7.58837891 68.89697266 C6.44397087 68.88497078 6.44397087 68.88497078 5.27644348 68.87272644 C2.75191272 68.84482556 0.22755361 68.80934822 -2.296875 68.7734375 C-4.05180475 68.75166521 -5.80673854 68.7302158 -7.56167603 68.70907593 C-11.24201603 68.66356331 -14.92228296 68.61434492 -18.60253906 68.5625 C-23.31570958 68.49636913 -28.02893744 68.43904669 -32.74225426 68.38446999 C-36.36771386 68.34157286 -39.99310361 68.29415981 -43.61848831 68.24537277 C-45.35597641 68.22250065 -47.09348297 68.20098827 -48.8310051 68.18086624 C-51.26291264 68.15198895 -53.69466143 68.11707277 -56.12646484 68.08056641 C-56.84248367 68.0732399 -57.5585025 68.06591339 -58.29621887 68.05836487 C-61.94513012 67.99693149 -65.3474314 67.71647359 -68.8984375 66.859375 C-67.87151207 75.3403626 -65.39933467 82.03770413 -58.75 87.68359375 C-50.62224747 93.4118562 -42.71254252 94.80726265 -32.8984375 93.859375 C-26.26746624 92.43792923 -20.00636979 90.40957118 -13.8359375 87.609375 C-7.5103521 84.97893355 -0.32139226 84.51498767 6.2734375 86.51953125 C11.52603459 89.20393375 15.91510972 93.99793006 18.1640625 99.421875 C18.07583244 102.86284748 16.83185049 104.89849425 15.1015625 107.859375 C-0.95850494 122.63677483 -22.08625572 126.46972785 -43.2109375 125.734375 C-60.87098078 124.2520294 -78.67920981 117.57812802 -90.8203125 104.3515625 C-104.80714056 87.57788524 -107.27211008 67.02839245 -105.8984375 45.859375 C-104.68898843 33.98042967 -100.30446622 24.35040936 -94.8984375 13.859375 C-94.2384375 13.859375 -93.5784375 13.859375 -92.8984375 13.859375 C-92.65609375 13.29734375 -92.41375 12.7353125 -92.1640625 12.15625 C-85.74098725 0.49955788 -72.24858699 -6.73588305 -59.9609375 -10.640625 C-39.33599506 -15.49482171 -17.22861011 -12.7240948 0 0 Z M-62.8984375 25.859375 C-65.87516496 30.47996688 -68.3117947 35.33748324 -68.8984375 40.859375 C-67.10942753 43.06339353 -67.10942753 43.06339353 -64.72850037 43.10661316 C-63.82994827 43.10518814 -62.93139618 43.10376312 -62.00561523 43.10229492 C-60.47909584 43.10690987 -60.47909584 43.10690987 -58.92173767 43.11161804 C-57.81963455 43.10443253 -56.71753143 43.09724701 -55.58203125 43.08984375 C-53.89183617 43.08915642 -53.89183617 43.08915642 -52.16749573 43.0884552 C-49.78263294 43.08543036 -47.39777217 43.07753721 -45.01293945 43.06518555 C-41.34774841 43.04693382 -37.68280985 43.04467577 -34.01757812 43.04492188 C-31.70572697 43.04000673 -29.39387753 43.03417842 -27.08203125 43.02734375 C-25.9779039 43.02623093 -24.87377655 43.0251181 -23.7361908 43.02397156 C-22.72166336 43.01759171 -21.70713593 43.01121185 -20.66186523 43.00463867 C-19.76410873 43.00082687 -18.86635223 42.99701508 -17.94139099 42.99308777 C-15.90451799 43.08526057 -15.90451799 43.08526057 -14.8984375 41.859375 C-14.13282993 34.84130565 -15.78963606 29.62559151 -19.8984375 23.859375 C-26.19061099 18.21221511 -33.99271567 16.39936397 -42.28515625 16.61328125 C-50.1905385 17.35773429 -57.39081323 19.98457577 -62.8984375 25.859375 Z " fill="#F7F6F7" transform="translate(250.8984375,49.140625)"/>
<path d="M0 0 C12.91185786 10.48244906 18.94039491 25.77524726 20.6796875 41.8828125 C22.49184816 61.13349118 22.49184816 61.13349118 19.4296875 67.2578125 C16.34171225 69.27290548 13.8836066 69.5031128 10.2421875 69.4453125 C9.36175781 69.43886719 8.48132813 69.43242188 7.57421875 69.42578125 C4.4296875 69.2578125 4.4296875 69.2578125 0.61328125 68.7512207 C-5.80005349 68.02982314 -12.20694724 68.15337252 -18.65234375 68.1953125 C-19.99753136 68.19972731 -21.34272105 68.20354143 -22.68791199 68.20678711 C-26.91957624 68.21812149 -31.15118363 68.23739422 -35.3828125 68.2578125 C-40.30792018 68.28146949 -45.23299663 68.30181221 -50.15814781 68.31375122 C-52.12130358 68.32021037 -54.08443616 68.33278557 -56.04756165 68.34545898 C-57.23947617 68.34876221 -58.43139069 68.35206543 -59.65942383 68.35546875 C-60.70705399 68.36070557 -61.75468414 68.36594238 -62.83406067 68.37133789 C-65.25341544 68.27096036 -67.262882 67.95672895 -69.5703125 67.2578125 C-68.21639174 75.65212122 -65.71076434 82.91266739 -58.90625 88.41015625 C-49.79510813 94.41466889 -41.3266113 95.52884469 -30.54296875 93.76171875 C-25.26826411 92.53488206 -20.54464037 90.84227493 -15.6328125 88.5703125 C-8.22717203 85.3491995 -0.75730555 84.83722557 6.9296875 87.4453125 C11.09836169 90.46760129 15.6025013 94.05641249 16.94140625 99.23828125 C17.249712 103.10923121 17.13394452 105.36970078 14.6640625 108.484375 C0.64640464 121.21469694 -20.08492632 127.11067331 -38.90234375 126.484375 C-44.18472117 126.03579829 -49.36276093 125.24167002 -54.5703125 124.2578125 C-56.03791016 124.00064453 -56.03791016 124.00064453 -57.53515625 123.73828125 C-66.41406437 121.89099164 -73.78553495 117.73512309 -81.5703125 113.2578125 C-81.5703125 112.5978125 -81.5703125 111.9378125 -81.5703125 111.2578125 C-82.15167969 110.99742187 -82.73304688 110.73703125 -83.33203125 110.46875 C-93.3957758 105.02414125 -99.37883266 93.44217313 -102.8828125 83.0078125 C-108.96011683 61.02997486 -107.49815249 37.85509492 -96.6796875 17.58203125 C-86.86741286 2.11861325 -72.60412128 -7.08192256 -54.85986328 -11.35180664 C-35.41902874 -14.66657465 -16.27046199 -11.02830707 0 0 Z M-62.7578125 25.6328125 C-66.60150486 31.19953937 -67.99758204 35.61413911 -68.5703125 42.2578125 C-66.09383395 43.49605178 -64.44717509 43.38475471 -61.67749023 43.38720703 C-60.15097084 43.39193527 -60.15097084 43.39193527 -58.59361267 43.39675903 C-57.49150955 43.3947348 -56.38940643 43.39271057 -55.25390625 43.390625 C-53.56371117 43.39206009 -53.56371117 43.39206009 -51.83937073 43.39352417 C-49.45451807 43.39420553 -47.06966356 43.39235431 -44.68481445 43.38818359 C-41.01965198 43.38282979 -37.35461179 43.38813267 -33.68945312 43.39453125 C-31.37760389 43.39387056 -29.06575474 43.39258958 -26.75390625 43.390625 C-25.09771523 43.39366135 -25.09771523 43.39366135 -23.4080658 43.39675903 C-22.39353836 43.39360687 -21.37901093 43.39045471 -20.33374023 43.38720703 C-18.98710548 43.38601364 -18.98710548 43.38601364 -17.61326599 43.38479614 C-15.57629326 43.48441922 -15.57629326 43.48441922 -14.5703125 42.2578125 C-13.8055387 34.91598406 -16.26916416 29.2164318 -20.7578125 23.4453125 C-32.81387182 14.06837747 -52.0613123 14.01946943 -62.7578125 25.6328125 Z " fill="#F7F6F7" transform="translate(388.5703125,48.7421875)"/>
<path d="M0 0 C-1.32 1.32 -2.64 2.64 -4 4 C-4 3.34 -4 2.68 -4 2 C-5.05179947 2.1053582 -5.05179947 2.1053582 -6.12484741 2.21284485 C-14.17237869 2.95846184 -22.14762662 3.16074298 -30.2265625 3.16796875 C-32.19162247 3.17296135 -32.19162247 3.17296135 -34.19638062 3.17805481 C-36.94098744 3.18398241 -39.68556303 3.18590072 -42.43017578 3.18530273 C-45.94966431 3.1852 -49.4689561 3.19899348 -52.9883976 3.21607494 C-56.35945604 3.22981663 -59.73047637 3.22928095 -63.1015625 3.23046875 C-64.9982518 3.24124702 -64.9982518 3.24124702 -66.93325806 3.25224304 C-68.67680069 3.2476281 -68.67680069 3.2476281 -70.45556641 3.24291992 C-71.99345322 3.24505745 -71.99345322 3.24505745 -73.56240845 3.24723816 C-76 3 -76 3 -78 1 C-77.32507507 1.00222061 -76.65015015 1.00444122 -75.95477295 1.00672913 C-68.88098687 1.02898565 -61.80721087 1.04399095 -54.73339844 1.05493164 C-52.09927974 1.0599364 -49.46516378 1.06674223 -46.83105469 1.07543945 C-43.02798787 1.08767491 -39.22495803 1.09326704 -35.421875 1.09765625 C-34.25887878 1.10281754 -33.09588257 1.10797882 -31.89764404 1.11329651 C-25.45768983 1.11373071 -19.12475474 0.85282941 -12.71466064 0.22142029 C-8.47636741 -0.12427453 -4.24872658 -0.08459854 0 0 Z " fill="#776C85" transform="translate(92,38)"/>
<path d="M0 0 C1.58367747 0.14204741 3.16693318 0.28880153 4.75 0.4375 C5.63171875 0.51871094 6.5134375 0.59992188 7.421875 0.68359375 C9.69350452 0.96238465 11.79851823 1.38790577 14 2 C1.75565545 4.39330993 -8.75565545 4.39330993 -21 2 C-21 1.67 -21 1.34 -21 1 C-14.07 1.33 -7.14 1.66 0 2 C0 1.34 0 0.68 0 0 Z " fill="#CAC1C7" transform="translate(218,171)"/>
<path d="M0 0 C2.86724686 0.57344937 3.8614515 0.8614515 6 3 C4.40233897 3.86627399 2.79660056 4.71766465 1.1875 5.5625 C0.29417969 6.03816406 -0.59914062 6.51382813 -1.51953125 7.00390625 C-4 8 -4 8 -7 7 C-6.34 7 -5.68 7 -5 7 C-4.731875 6.360625 -4.46375 5.72125 -4.1875 5.0625 C-3 3 -3 3 0 2 C0 1.34 0 0.68 0 0 Z " fill="#DBCFD6" transform="translate(249,162)"/>
<path d="M0 0 C0 5.2710659 -3.14049809 9.05664425 -6.5625 12.8125 C-9 15 -9 15 -12 17 C-10.25477062 12.94785821 -7.5771843 9.69396039 -4.875 6.25 C-4.40707031 5.64800781 -3.93914063 5.04601562 -3.45703125 4.42578125 C-2.30774993 2.94813384 -1.15428765 1.47373995 0 0 Z " fill="#B4B2B7" transform="translate(50,89)"/>
<path d="M0 0 C-1.32 1.32 -2.64 2.64 -4 4 C-4 3.34 -4 2.68 -4 2 C-9.94 2 -15.88 2 -22 2 C-22 1.67 -22 1.34 -22 1 C-14.64424835 0.29223008 -7.3905476 -0.14715692 0 0 Z " fill="#A3989D" transform="translate(92,38)"/>
<path d="M0 0 C0.51046875 0.32742187 1.0209375 0.65484375 1.546875 0.9921875 C4.86772037 2.35648384 7.67372568 2.1912273 11.25 2.125 C13.14492188 2.09792969 13.14492188 2.09792969 15.078125 2.0703125 C16.04234375 2.04710938 17.0065625 2.02390625 18 2 C18 2.33 18 2.66 18 3 C17.17757813 3.03738281 16.35515625 3.07476562 15.5078125 3.11328125 C8.26520813 3.53980876 1.8334622 4.54735781 -5 7 C-4.0409375 6.1028125 -4.0409375 6.1028125 -3.0625 5.1875 C-0.79689611 3.09189663 -0.79689611 3.09189663 0 0 Z " fill="#B8A0B3" transform="translate(479,64)"/>
<path d="M0 0 C0.33 0.66 0.66 1.32 1 2 C-3.455 3.485 -3.455 3.485 -8 5 C-8.66 3.68 -9.32 2.36 -10 1 C-6.78548731 -0.60725635 -3.56387464 -0.05748185 0 0 Z " fill="#DED6D5" transform="translate(66,138)"/>
<path d="M0 0 C0.93423645 3.01031744 1.04449911 3.86650268 0 7 C2.64 7.33 5.28 7.66 8 8 C6.625 9.5 6.625 9.5 5 11 C4.34 11 3.68 11 3 11 C3 10.34 3 9.68 3 9 C1.68 8.67 0.36 8.34 -1 8 C-1.125 2.25 -1.125 2.25 0 0 Z " fill="#D7CFD5" transform="translate(320,84)"/>
<path d="M0 0 C0 4.09632497 -1.55398196 5.76067881 -4 9 C-6.75 11.375 -6.75 11.375 -9 13 C-7.50923566 9.7173068 -5.61379679 7.06922559 -3.375 4.25 C-2.74335937 3.45078125 -2.11171875 2.6515625 -1.4609375 1.828125 C-0.97882813 1.22484375 -0.49671875 0.6215625 0 0 Z " fill="#B0A3B7" transform="translate(69,64)"/>
<path d="M0 0 C0 3.17370278 -0.30933342 4.3794668 -2 7 C-4.125 8.25 -4.125 8.25 -6 9 C-6 6 -6 6 -4.6875 4.39453125 C-4.130625 3.87246094 -3.57375 3.35039063 -3 2.8125 C-2.443125 2.28269531 -1.88625 1.75289062 -1.3125 1.20703125 C-0.6628125 0.60955078 -0.6628125 0.60955078 0 0 Z " fill="#D4D3CF" transform="translate(165,54)"/>
<path d="M0 0 C0.66 0.33 1.32 0.66 2 1 C2 1.99 2 2.98 2 4 C-3.75 2.25 -3.75 2.25 -6 0 C-3.4832097 -1.25839515 -2.62168527 -0.81927665 0 0 Z " fill="#E4DFDE" transform="translate(181,164)"/>
<path d="M0 0 C0 6 0 6 -1.375 7.6875 C-3 9 -3 9 -5 9 C-3.90931332 5.22454612 -3.0916909 2.52956528 0 0 Z " fill="#BEBBC3" transform="translate(15,134)"/>
<path d="M0 0 C0.66 0.33 1.32 0.66 2 1 C-0.80804268 3.96404505 -3.18315774 6.44499019 -7 8 C-5.50902342 4.2047869 -3.24299151 2.38957269 0 0 Z " fill="#CDCACF" transform="translate(470,43)"/>
<path d="M0 0 C0.33 1.32 0.66 2.64 1 4 C-0.65 5.32 -2.3 6.64 -4 8 C-4.66 7.67 -5.32 7.34 -6 7 C-4.02 4.69 -2.04 2.38 0 0 Z " fill="#B8B6B9" transform="translate(514,130)"/>
<path d="M0 0 C-1.75 3.875 -1.75 3.875 -4 5 C-4.66 4.67 -5.32 4.34 -6 4 C-6 3.01 -6 2.02 -6 1 C-3 0 -3 0 0 0 Z " fill="#D9CACC" transform="translate(105,77)"/>
<path d="" fill="#000000" transform="translate(0,0)"/>
<path d="" fill="#000000" transform="translate(0,0)"/>
<path d="" fill="#000000" transform="translate(0,0)"/>
<path d="" fill="#000000" transform="translate(0,0)"/>
<path d="" fill="#000000" transform="translate(0,0)"/>
<path d="" fill="#000000" transform="translate(0,0)"/>
<path d="" fill="#000000" transform="translate(0,0)"/>
<path d="" fill="#000000" transform="translate(0,0)"/>
<path d="" fill="#000000" transform="translate(0,0)"/>
<path d="" fill="#000000" transform="translate(0,0)"/>
<path d="" fill="#000000" transform="translate(0,0)"/>
<path d="" fill="#000000" transform="translate(0,0)"/>
<path d="" fill="#000000" transform="translate(0,0)"/>
<path d="" fill="#000000" transform="translate(0,0)"/>
<path d="" fill="#000000" transform="translate(0,0)"/>
<path d="" fill="#000000" transform="translate(0,0)"/>
<path d="" fill="#000000" transform="translate(0,0)"/>
<path d="" fill="#000000" transform="translate(0,0)"/>
<path d="" fill="#000000" transform="translate(0,0)"/>
<path d="" fill="#000000" transform="translate(0,0)"/>
<path d="" fill="#000000" transform="translate(0,0)"/>
<path d="" fill="#000000" transform="translate(0,0)"/>
<path d="" fill="#000000" transform="translate(0,0)"/>
<path d="" fill="#000000" transform="translate(0,0)"/>
<path d="" fill="#000000" transform="translate(0,0)"/>
<path d="" fill="#000000" transform="translate(0,0)"/>
<path d="" fill="#000000" transform="translate(0,0)"/>
<path d="" fill="#000000" transform="translate(0,0)"/>
<path d="" fill="#000000" transform="translate(0,0)"/>
<path d="" fill="#000000" transform="translate(0,0)"/>
<path d="" fill="#000000" transform="translate(0,0)"/>
<path d="" fill="#000000" transform="translate(0,0)"/>
<path d="" fill="#000000" transform="translate(0,0)"/>
<path d="" fill="#000000" transform="translate(0,0)"/>
<path d="" fill="#000000" transform="translate(0,0)"/>
<path d="" fill="#000000" transform="translate(0,0)"/>
<path d="" fill="#FF0000" transform="translate(0,0)"/>
<path d="" fill="#000000" transform="translate(0,0)"/>
<path d="" fill="#000000" transform="translate(0,0)"/>
<path d="" fill="#000000" transform="translate(0,0)"/>
<path d="" fill="#000000" transform="translate(0,0)"/>
<path d="" fill="#000000" transform="translate(0,0)"/>
</svg>
